<svg id="Capa_1" data-name="Capa 1" xmlns="http://www.w3.org/2000/svg" viewBox="0 0 592.03 132.71"><defs><style>.cls-1{fill:#fff;}.cls-2{fill:#00e483;}</style></defs><title>creatio_logo</title><path class="cls-1" d="M45.93,38.55c23,0,39.21,12.63,44,34.45H60c-2.3-6.4-6.89-10.5-14.6-10.5-10,0-16.9,7.88-16.9,23.13s6.89,23.13,16.9,23.13c7.71,0,12.14-3.77,14.6-10.5H89.9c-4.76,21.17-21,34.45-44,34.45C19,132.71,0,114.67,0,85.63,0,56.76,19,38.55,45.93,38.55Z"/><path class="cls-1" d="M132.88,131.4H104.82V39.86h28.06V55.12c6.39-9.68,16.4-16.24,28.7-16.24V68.57h-7.71c-13.28,0-21,4.6-21,20.34Z"/><path class="cls-1" d="M215.72,132.71c-26.91,0-46.26-18-46.26-47.08s19-47.08,46.26-47.08c26.74,0,45.6,17.72,45.6,45.61a70.49,70.49,0,0,1-.49,8.2H197.34c1,12,8.37,17.55,17.39,17.55,7.88,0,12.31-3.94,14.6-8.86h29.86C254.76,118.93,238.52,132.71,215.72,132.71ZM197.51,76.77h35.11c0-10-7.88-15.74-17.23-15.74C206.2,61,199.15,66.6,197.51,76.77Z"/><path class="cls-1" d="M310.86,38.55c13.62,0,23.3,6.23,28.22,14.27v-13h28.05V131.4H339.08v-13c-5.09,8-14.77,14.27-28.38,14.27-22.31,0-40.19-18.37-40.19-47.24S288.39,38.55,310.86,38.55ZM319.07,63c-10.5,0-20,7.88-20,22.48s9.52,22.8,20,22.8c10.66,0,20-8,20-22.64S329.73,63,319.07,63Z"/><path class="cls-2" d="M391.9,63.16H380.74V39.86H391.9V17.55H420V39.86h18.37v23.3H420V99.9c0,5.42,2.3,7.71,8.53,7.71h10V131.4H424.22c-19,0-32.32-8-32.32-31.82Z"/><path class="cls-1" d="M544.13,132.71c-26.9,0-47.24-18-47.24-47.08s20.83-47.08,47.57-47.08c26.9,0,47.57,18.05,47.57,47.08S571,132.71,544.13,132.71Zm0-24.27c10,0,19.36-7.39,19.36-22.81,0-15.58-9.19-22.8-19-22.8-10.17,0-19,7.22-19,22.8C525.43,101.05,534,108.44,544.13,108.44Z"/><circle class="cls-2" cx="468.1" cy="16.11" r="16.11"/><rect class="cls-1" x="454.07" y="39.86" width="28.05" height="91.54"/></svg>